# xmcd
#
# Track frame offsets:
#	150
#	14570
#	25040
#	37112
#	48867
#	59877
#	71700
#	88122
#	101812
#	113702
#	127465
#	139535
#	153385
#	164857
#	173065
#	185945
#	199487
#	209922
#	218765
#	235742
#	246034
#	252700
#	261345
#	269770
#	281070
#	296807
#	307415
#	323562
#
# Disc length: 4482 seconds
#
# Revision: 3
# Processed by: cddbd v1.5.2PL0 Copyright (c) Steve Scherf et al.
# Submitted via: EasyCDDAExtractor 11.0.0.1
#
DISCID=dd11801c
DTITLE=Country Gentlemen - The Early Rebel Recording  Disc One 
DYEAR=1900
DGENRE=Country
TTITLE0=Christms Time Back Home
TTITLE1=Heavenward Bound
TTITLE2=I Am Weary [ Let Me Rest]
TTITLE3=Sad and Lonesome Day
TTITLE4=The Bluebirds Are Sing
TTITLE5=The White Rose
TTITLE6=The Gentleman Is Blue
TTITLE7=Philadelphia Lawyer
TTITLE8=Spasish TWo - Step
TTITLE9=Bringing Mary Home
TTITLE10=The Convict And The Rose
TTITLE11=Banks Of The Ohio
TTITLE12=Down Where The River Bends
TTITLE13=Battle Hymn Of The Republic
TTITLE14=This World's No Place To Live
TTITLE15=Uncle Joe
TTITLE16=Northbound
TTITLE17=Let The Lighth Shine Down
TTITLE18=Gril From The North Country
TTITLE19=Cold Wind A blowing
TTITLE20=Jingle Bells
TTITLE21=Silent Night
TTITLE22=We Three Kings
TTITLE23=Blue Bells
TTITLE24=It's All Over Now ,Baby Blue
TTITLE25=Matterhorn
TTITLE26=Dark As A Dungeon
TTITLE27=Big Bruce
EXTD=
EXTT0=
EXTT1=
EXTT2=
EXTT3=
EXTT4=
EXTT5=
EXTT6=
EXTT7=
EXTT8=
EXTT9=
EXTT10=
EXTT11=
EXTT12=
EXTT13=
EXTT14=
EXTT15=
EXTT16=
EXTT17=
EXTT18=
EXTT19=
EXTT20=
EXTT21=
EXTT22=
EXTT23=
EXTT24=
EXTT25=
EXTT26=
EXTT27=
PLAYORDER=
